<svg width="150" height="42" viewBox="0 0 150 42" fill="none" xmlns="http://www.w3.org/2000/svg">
<rect width="150" height="42" rx="21" fill="#9953F1"/>
<path d="M63.4746 28.4404H62.1689V26H55.0254V28.4473H53.7129L53.7061 24.9268H54.5195C54.9479 24.4437 55.2874 23.7965 55.5381 22.9854C55.7933 22.1696 55.9528 21.2764 56.0166 20.3057L56.2354 16.0469H62.1895V24.9268H63.4883L63.4746 28.4404ZM56.0166 24.9268H60.8701V17.127H57.5L57.3564 20.0527C57.2972 21.1966 57.1445 22.1719 56.8984 22.9785C56.6569 23.7852 56.363 24.4346 56.0166 24.9268ZM64.5137 22.2334C64.5137 21.5088 64.6549 20.8571 64.9375 20.2783C65.2246 19.6995 65.6211 19.2529 66.127 18.9385C66.6374 18.624 67.2184 18.4668 67.8701 18.4668C68.8773 18.4668 69.6908 18.8154 70.3105 19.5127C70.9349 20.21 71.2471 21.1374 71.2471 22.2949V22.3838C71.2471 23.1038 71.1081 23.751 70.8301 24.3252C70.5566 24.8949 70.1624 25.3392 69.6475 25.6582C69.137 25.9772 68.5492 26.1367 67.8838 26.1367C66.8812 26.1367 66.0677 25.7881 65.4434 25.0908C64.8236 24.3936 64.5137 23.4707 64.5137 22.3223V22.2334ZM65.7852 22.3838C65.7852 23.2041 65.9743 23.8626 66.3525 24.3594C66.7354 24.8561 67.2458 25.1045 67.8838 25.1045C68.5264 25.1045 69.0368 24.8538 69.415 24.3525C69.7933 23.8467 69.9824 23.1403 69.9824 22.2334C69.9824 21.4222 69.7887 20.766 69.4014 20.2646C69.0186 19.7588 68.5081 19.5059 67.8701 19.5059C67.2458 19.5059 66.7422 19.7542 66.3594 20.251C65.9766 20.7477 65.7852 21.4587 65.7852 22.3838ZM76.0801 19.0273C77.0098 19.0273 77.7526 19.3395 78.3086 19.9639C78.8691 20.5837 79.1494 21.4017 79.1494 22.418V22.5342C79.1494 23.2314 79.015 23.8558 78.7461 24.4072C78.4772 24.9541 78.0898 25.3802 77.584 25.6855C77.0827 25.9863 76.5039 26.1367 75.8477 26.1367C74.8542 26.1367 74.0544 25.8063 73.4482 25.1455C72.8421 24.4801 72.5391 23.5892 72.5391 22.4727V21.8574C72.5391 20.3034 72.8262 19.0684 73.4004 18.1523C73.9792 17.2363 74.8314 16.6781 75.957 16.4775C76.5951 16.3636 77.0257 16.2246 77.249 16.0605C77.4723 15.8965 77.584 15.6709 77.584 15.3838H78.623C78.623 15.9535 78.4932 16.3978 78.2334 16.7168C77.9782 17.0358 77.568 17.2614 77.0029 17.3936L76.0596 17.6055C75.3076 17.7832 74.7425 18.084 74.3643 18.5078C73.9906 18.9271 73.7467 19.4876 73.6328 20.1895C74.3027 19.4147 75.1185 19.0273 76.0801 19.0273ZM75.834 20.0664C75.2142 20.0664 74.722 20.276 74.3574 20.6953C73.9928 21.11 73.8105 21.6865 73.8105 22.4248V22.5342C73.8105 23.3271 73.9928 23.9561 74.3574 24.4209C74.7266 24.8812 75.2233 25.1113 75.8477 25.1113C76.4766 25.1113 76.9733 24.8789 77.3379 24.4141C77.7025 23.9492 77.8848 23.2702 77.8848 22.377C77.8848 21.6797 77.7002 21.1214 77.3311 20.7021C76.9665 20.2783 76.4674 20.0664 75.834 20.0664ZM85.1377 26C85.0648 25.8542 85.0055 25.5944 84.96 25.2207C84.3721 25.8314 83.6702 26.1367 82.8545 26.1367C82.1253 26.1367 81.526 25.9316 81.0566 25.5215C80.5918 25.1068 80.3594 24.5827 80.3594 23.9492C80.3594 23.179 80.651 22.582 81.2344 22.1582C81.8223 21.7298 82.6471 21.5156 83.709 21.5156H84.9395V20.9346C84.9395 20.4925 84.8073 20.1416 84.543 19.8818C84.2786 19.6175 83.889 19.4854 83.374 19.4854C82.9229 19.4854 82.5446 19.5993 82.2393 19.8271C81.9339 20.055 81.7812 20.3307 81.7812 20.6543H80.5098C80.5098 20.2852 80.6396 19.9297 80.8994 19.5879C81.1637 19.2415 81.5192 18.9681 81.9658 18.7676C82.417 18.5671 82.9115 18.4668 83.4492 18.4668C84.3014 18.4668 84.9691 18.681 85.4521 19.1094C85.9352 19.5332 86.1859 20.1188 86.2041 20.8662V24.2705C86.2041 24.9495 86.2907 25.4896 86.4639 25.8906V26H85.1377ZM83.0391 25.0361C83.4355 25.0361 83.8115 24.9336 84.167 24.7285C84.5225 24.5234 84.7799 24.2568 84.9395 23.9287V22.4111H83.9482C82.3988 22.4111 81.624 22.8646 81.624 23.7715C81.624 24.168 81.7562 24.4779 82.0205 24.7012C82.2848 24.9245 82.6243 25.0361 83.0391 25.0361ZM88.3027 26V18.6035H91.1875C92.1719 18.6035 92.9261 18.7767 93.4502 19.123C93.9788 19.4648 94.2432 19.9684 94.2432 20.6338C94.2432 20.9756 94.1406 21.2855 93.9355 21.5635C93.7305 21.8369 93.4274 22.0465 93.0264 22.1924C93.473 22.2972 93.8307 22.5023 94.0996 22.8076C94.373 23.113 94.5098 23.4775 94.5098 23.9014C94.5098 24.5804 94.2591 25.0999 93.7578 25.46C93.2611 25.82 92.557 26 91.6455 26H88.3027ZM89.5674 22.7529V24.9814H91.6592C92.1878 24.9814 92.582 24.8835 92.8418 24.6875C93.1061 24.4915 93.2383 24.2158 93.2383 23.8604C93.2383 23.1221 92.696 22.7529 91.6113 22.7529H89.5674ZM89.5674 21.7412H91.2012C92.3861 21.7412 92.9785 21.3949 92.9785 20.7021C92.9785 20.0094 92.418 19.6517 91.2969 19.6289H89.5674V21.7412ZM100.97 18.6035H102.234V26H100.97V20.6064L97.5586 26H96.2939V18.6035H97.5586V24.0039L100.97 18.6035ZM109.761 19.6289H107.279V26H106.015V19.6289H103.581V18.6035H109.761V19.6289ZM112.372 21.1533H114.293C115.132 21.1624 115.795 21.3812 116.282 21.8096C116.77 22.238 117.014 22.819 117.014 23.5527C117.014 24.291 116.763 24.8835 116.262 25.3301C115.76 25.7767 115.086 26 114.238 26H111.107V18.6035H112.372V21.1533ZM112.372 22.1855V24.9678H114.252C114.726 24.9678 115.093 24.847 115.353 24.6055C115.612 24.3594 115.742 24.0244 115.742 23.6006C115.742 23.1904 115.615 22.8555 115.359 22.5957C115.109 22.3314 114.756 22.1947 114.3 22.1855H112.372Z" fill="white"/>
<rect width="42" height="42" rx="21" fill="#AA68FE"/>
<path d="M21.6084 20.6611H24.3838V21.8574H21.6084V25.002H20.3369V21.8574H17.5615V20.6611H20.3369V17.7559H21.6084V20.6611Z" fill="white"/>
</svg>
